<svg width="228" height="20" viewBox="0 0 228 20" fill="none" xmlns="http://www.w3.org/2000/svg">
<path d="M16.3147 12.3893C15.9047 11.9629 15.4101 11.735 14.8859 11.735C14.366 11.735 13.8672 11.9587 13.4402 12.3851L12.1044 13.7147C11.9945 13.6556 11.8846 13.6007 11.7789 13.5459C11.6267 13.4699 11.483 13.3981 11.3604 13.3222C10.1091 12.5286 8.97196 11.4944 7.88132 10.1563C7.35291 9.48936 6.99782 8.92795 6.73995 8.35809C7.08659 8.04151 7.40786 7.71226 7.72068 7.39567C7.83905 7.27748 7.95741 7.15507 8.07578 7.03688C8.9635 6.15044 8.9635 5.00229 8.07578 4.11585L6.92173 2.96348C6.79068 2.83262 6.65541 2.69755 6.52859 2.56247C6.27495 2.30076 6.00863 2.03061 5.73386 1.77734C5.32381 1.37211 4.83345 1.15683 4.31772 1.15683C3.80199 1.15683 3.30317 1.37211 2.88045 1.77734C2.87622 1.78156 2.87622 1.78156 2.87199 1.78578L1.43471 3.23363C0.893623 3.77394 0.585031 4.43243 0.517395 5.19646C0.41594 6.42903 0.779486 7.57718 1.05849 8.32854C1.74331 10.1732 2.76631 11.8827 4.29236 13.7147C6.14391 15.9224 8.37168 17.6657 10.9165 18.8941C11.8888 19.3542 13.1866 19.8987 14.6365 19.9916C14.7253 19.9958 14.8183 20 14.9028 20C15.8793 20 16.6994 19.6496 17.342 18.9532C17.3462 18.9447 17.3547 18.9405 17.3589 18.932C17.5787 18.6661 17.8323 18.4255 18.0987 18.168C18.2804 17.995 18.4664 17.8134 18.6482 17.6235C19.0667 17.1887 19.2865 16.6822 19.2865 16.163C19.2865 15.6396 19.0625 15.1372 18.6355 14.7151L16.3147 12.3893ZM17.8281 16.8341C17.8239 16.8384 17.8239 16.8341 17.8281 16.8341C17.6633 17.0114 17.4942 17.1718 17.3124 17.3491C17.0376 17.6108 16.7586 17.8852 16.4965 18.1933C16.0696 18.6492 15.5665 18.8645 14.9071 18.8645C14.8437 18.8645 14.776 18.8645 14.7126 18.8603C13.4571 18.7801 12.2904 18.2904 11.4153 17.8725C9.02269 16.7159 6.92173 15.0739 5.17586 12.9929C3.73436 11.258 2.77054 9.65398 2.13222 7.93176C1.73908 6.88069 1.59535 6.06179 1.65876 5.28932C1.70103 4.79545 1.89126 4.386 2.24213 4.03565L3.68363 2.59624C3.89077 2.40207 4.11058 2.29654 4.32618 2.29654C4.59249 2.29654 4.80809 2.45694 4.94336 2.59202C4.94759 2.59624 4.95181 2.60046 4.95604 2.60468C5.21391 2.84529 5.45909 3.09433 5.71695 3.36026C5.848 3.49534 5.98327 3.63042 6.11854 3.76971L7.27259 4.92209C7.72068 5.36953 7.72068 5.7832 7.27259 6.23064C7.15 6.35305 7.03164 6.47546 6.90905 6.59366C6.55395 6.95667 6.21577 7.29437 5.848 7.62361C5.83954 7.63206 5.83109 7.63628 5.82686 7.64472C5.46332 8.00774 5.53095 8.36231 5.60704 8.60292C5.61127 8.61558 5.6155 8.62824 5.61972 8.64091C5.91986 9.36694 6.34259 10.0508 6.98514 10.8654L6.98936 10.8697C8.15609 12.3049 9.38623 13.4235 10.7432 14.2803C10.9165 14.3901 11.0941 14.4787 11.2631 14.5632C11.4153 14.6391 11.5591 14.7109 11.6816 14.7869C11.6986 14.7953 11.7155 14.808 11.7324 14.8164C11.8761 14.8882 12.0114 14.922 12.1509 14.922C12.5017 14.922 12.7216 14.7025 12.7934 14.6307L14.2392 13.1871C14.3829 13.0436 14.6112 12.8705 14.8775 12.8705C15.1396 12.8705 15.3552 13.0351 15.4862 13.1786C15.4904 13.1829 15.4904 13.1829 15.4947 13.1871L17.8239 15.5129C18.2593 15.9435 18.2593 16.3867 17.8281 16.8341Z" fill="#00B2FF"/>
<path d="M11.3095 4.75747C12.4171 4.9432 13.4232 5.46662 14.2264 6.26863C15.0295 7.07065 15.5495 8.07528 15.7397 9.18122C15.7862 9.45981 16.0272 9.65399 16.3019 9.65399C16.3358 9.65399 16.3654 9.64977 16.3992 9.64554C16.712 9.59489 16.9191 9.29941 16.8684 8.98705C16.6401 7.64895 16.006 6.42904 15.038 5.4624C14.0699 4.49576 12.8483 3.86258 11.5082 3.63464C11.1954 3.58399 10.9037 3.79083 10.8488 4.09897C10.7938 4.40711 10.9967 4.70681 11.3095 4.75747Z" fill="#00B2FF"/>
<path d="M20.4913 8.82242C20.1151 6.61899 19.0752 4.61395 17.4773 3.01836C15.8794 1.42277 13.8714 0.384369 11.6648 0.00868773C11.3562 -0.0461871 11.0645 0.16487 11.0095 0.473013C10.9588 0.785377 11.1659 1.07664 11.4788 1.13151C13.4487 1.46498 15.2453 2.39785 16.6741 3.82038C18.1029 5.24712 19.0329 7.0411 19.3669 9.00815C19.4134 9.28675 19.6543 9.48092 19.9291 9.48092C19.9629 9.48092 19.9925 9.4767 20.0263 9.47248C20.3349 9.42605 20.5463 9.13057 20.4913 8.82242Z" fill="#00B2FF"/>
<path d="M36.268 8.016H39.724V4.48H40.876V8.016H44.332V9.168H40.876V12.704H39.724V9.168H36.268V8.016ZM47.0778 14L51.9738 3.952H46.1978V2.8H53.2698V3.84L48.3898 14H47.0778ZM71.1933 17.392C70.4786 17.2107 69.8066 16.9387 69.1773 16.576C68.5586 16.224 68.0146 15.76 67.5453 15.184C67.0866 14.608 66.7186 13.904 66.4413 13.072C66.1746 12.24 66.0413 11.2533 66.0413 10.112C66.0413 8.98133 66.1799 7.99467 66.4573 7.152C66.7346 6.29867 67.1079 5.57867 67.5773 4.992C68.0466 4.39467 68.5906 3.92 69.2093 3.568C69.8386 3.20533 70.4999 2.94933 71.1933 2.8L71.5933 3.808C70.9639 3.98933 70.3879 4.22933 69.8653 4.528C69.3426 4.816 68.8893 5.20533 68.5052 5.696C68.1319 6.176 67.8386 6.77867 67.6253 7.504C67.4226 8.21867 67.3213 9.088 67.3213 10.112C67.3213 11.1467 67.4439 12.032 67.6893 12.768C67.9453 13.4933 68.2759 14.096 68.6813 14.576C69.0973 15.0667 69.5559 15.4453 70.0573 15.712C70.5693 15.9893 71.0813 16.1813 71.5933 16.288L71.1933 17.392ZM83.155 10.512H80.995V14H79.747V10.512H74.579V9.584L79.939 2.8H80.995V9.456H83.155V10.512ZM79.747 4.8L76.051 9.456H79.747V4.8ZM84.4448 6.176C84.4448 5.68533 84.5248 5.22667 84.6848 4.8C84.8448 4.36267 85.0848 3.984 85.4048 3.664C85.7354 3.33333 86.1408 3.07733 86.6208 2.896C87.1008 2.704 87.6608 2.608 88.3008 2.608C88.8981 2.608 89.4314 2.704 89.9008 2.896C90.3701 3.088 90.7648 3.36 91.0848 3.712C91.4154 4.05333 91.6661 4.47467 91.8368 4.976C92.0074 5.46667 92.0928 6.016 92.0928 6.624C92.0928 7.81867 91.9434 8.86933 91.6448 9.776C91.3461 10.6827 90.9301 11.4507 90.3968 12.08C89.8634 12.7093 89.2288 13.2 88.4928 13.552C87.7674 13.904 86.9781 14.1173 86.1248 14.192L85.8848 13.184C86.5888 13.1093 87.2181 12.9387 87.7728 12.672C88.3274 12.4053 88.8074 12.064 89.2128 11.648C89.6181 11.232 89.9488 10.752 90.2048 10.208C90.4608 9.664 90.6368 9.08267 90.7328 8.464C90.5621 8.64533 90.3861 8.8 90.2048 8.928C90.0341 9.04533 89.8421 9.14133 89.6288 9.216C89.4154 9.29067 89.1808 9.344 88.9248 9.376C88.6688 9.408 88.3754 9.424 88.0448 9.424C87.5541 9.424 87.0901 9.34933 86.6528 9.2C86.2154 9.05067 85.8314 8.83733 85.5008 8.56C85.1808 8.272 84.9248 7.93067 84.7328 7.536C84.5408 7.13067 84.4448 6.67733 84.4448 6.176ZM85.7568 6.048C85.7568 6.816 85.9861 7.392 86.4448 7.776C86.9141 8.16 87.5328 8.352 88.3008 8.352C88.9088 8.352 89.4314 8.26133 89.8688 8.08C90.3168 7.888 90.6314 7.65333 90.8128 7.376C90.8341 7.22667 90.8448 7.10933 90.8448 7.024C90.8448 6.928 90.8448 6.82133 90.8448 6.704C90.8448 6.33067 90.7914 5.96267 90.6848 5.6C90.5888 5.23733 90.4341 4.912 90.2208 4.624C90.0074 4.336 89.7301 4.10667 89.3888 3.936C89.0581 3.75467 88.6581 3.664 88.1888 3.664C87.4208 3.664 86.8234 3.872 86.3968 4.288C85.9701 4.704 85.7568 5.29067 85.7568 6.048ZM97.1585 13.072C97.5638 13.072 97.9372 13.024 98.2785 12.928C98.6198 12.8213 98.9078 12.6667 99.1425 12.464C99.3878 12.2507 99.5745 11.9893 99.7025 11.68C99.8412 11.3707 99.9105 11.008 99.9105 10.592C99.9105 9.824 99.6332 9.24267 99.0785 8.848C98.5345 8.44267 97.7878 8.24 96.8385 8.24L95.3345 8.32V2.8H100.823V3.952H96.5345V7.2L97.3345 7.168C98.5185 7.168 99.4518 7.456 100.135 8.032C100.817 8.608 101.159 9.42933 101.159 10.496C101.159 11.0933 101.052 11.6213 100.839 12.08C100.636 12.5387 100.353 12.928 99.9905 13.248C99.6278 13.5573 99.1958 13.792 98.6945 13.952C98.2038 14.112 97.6652 14.192 97.0785 14.192C96.7585 14.192 96.4545 14.1653 96.1665 14.112C95.8785 14.0693 95.6172 14.016 95.3825 13.952C95.1478 13.8773 94.9398 13.8027 94.7585 13.728C94.5878 13.6427 94.4652 13.568 94.3905 13.504L94.9025 12.464C95.0838 12.5707 95.3612 12.6987 95.7345 12.848C96.1078 12.9973 96.5825 13.072 97.1585 13.072ZM104.944 16.288C105.456 16.1813 105.963 15.9893 106.464 15.712C106.976 15.4453 107.435 15.0667 107.84 14.576C108.256 14.096 108.587 13.4933 108.832 12.768C109.088 12.032 109.216 11.1467 109.216 10.112C109.216 9.088 109.11 8.21867 108.896 7.504C108.694 6.77867 108.4 6.176 108.016 5.696C107.643 5.20533 107.195 4.816 106.672 4.528C106.15 4.22933 105.574 3.98933 104.944 3.808L105.344 2.8C106.038 2.94933 106.694 3.20533 107.312 3.568C107.942 3.92 108.491 4.39467 108.96 4.992C109.43 5.57867 109.803 6.29867 110.08 7.152C110.358 7.99467 110.496 8.98133 110.496 10.112C110.496 11.2533 110.358 12.24 110.08 13.072C109.814 13.904 109.446 14.608 108.976 15.184C108.518 15.76 107.974 16.224 107.344 16.576C106.726 16.9387 106.059 17.2107 105.344 17.392L104.944 16.288ZM122.724 8.4C122.724 7.49333 122.804 6.68267 122.964 5.968C123.124 5.24267 123.364 4.63467 123.684 4.144C124.004 3.64267 124.409 3.264 124.9 3.008C125.39 2.74133 125.972 2.608 126.644 2.608C127.358 2.608 127.961 2.736 128.452 2.992C128.953 3.248 129.358 3.62133 129.668 4.112C129.977 4.60267 130.201 5.21067 130.34 5.936C130.478 6.65067 130.548 7.472 130.548 8.4C130.548 9.30667 130.468 10.1227 130.308 10.848C130.148 11.5627 129.908 12.1707 129.588 12.672C129.268 13.1627 128.862 13.5413 128.372 13.808C127.881 14.064 127.3 14.192 126.628 14.192C125.924 14.192 125.321 14.0533 124.82 13.776C124.329 13.488 123.924 13.088 123.604 12.576C123.294 12.064 123.07 11.456 122.932 10.752C122.793 10.0373 122.724 9.25333 122.724 8.4ZM129.236 8.4C129.236 7.83467 129.204 7.296 129.14 6.784L124.388 11.12C124.569 11.728 124.841 12.2133 125.204 12.576C125.566 12.9387 126.041 13.12 126.628 13.12C127.566 13.12 128.233 12.7307 128.628 11.952C129.033 11.1733 129.236 9.98933 129.236 8.4ZM124.052 8.4C124.052 8.66667 124.057 8.92267 124.068 9.168C124.089 9.41333 124.11 9.65333 124.132 9.888L128.9 5.568C128.718 4.992 128.446 4.53333 128.084 4.192C127.732 3.85067 127.252 3.68 126.644 3.68C125.694 3.68 125.022 4.07467 124.628 4.864C124.244 5.64267 124.052 6.82133 124.052 8.4ZM132.318 8.4C132.318 7.49333 132.398 6.68267 132.558 5.968C132.718 5.24267 132.958 4.63467 133.278 4.144C133.598 3.64267 134.003 3.264 134.494 3.008C134.984 2.74133 135.566 2.608 136.238 2.608C136.952 2.608 137.555 2.736 138.046 2.992C138.547 3.248 138.952 3.62133 139.262 4.112C139.571 4.60267 139.795 5.21067 139.934 5.936C140.072 6.65067 140.142 7.472 140.142 8.4C140.142 9.30667 140.062 10.1227 139.902 10.848C139.742 11.5627 139.502 12.1707 139.182 12.672C138.862 13.1627 138.456 13.5413 137.966 13.808C137.475 14.064 136.894 14.192 136.222 14.192C135.518 14.192 134.915 14.0533 134.414 13.776C133.923 13.488 133.518 13.088 133.198 12.576C132.888 12.064 132.664 11.456 132.526 10.752C132.387 10.0373 132.318 9.25333 132.318 8.4ZM138.83 8.4C138.83 7.83467 138.798 7.296 138.734 6.784L133.982 11.12C134.163 11.728 134.435 12.2133 134.798 12.576C135.16 12.9387 135.635 13.12 136.222 13.12C137.16 13.12 137.827 12.7307 138.222 11.952C138.627 11.1733 138.83 9.98933 138.83 8.4ZM133.646 8.4C133.646 8.66667 133.651 8.92267 133.662 9.168C133.683 9.41333 133.704 9.65333 133.726 9.888L138.494 5.568C138.312 4.992 138.04 4.53333 137.678 4.192C137.326 3.85067 136.846 3.68 136.238 3.68C135.288 3.68 134.616 4.07467 134.222 4.864C133.838 5.64267 133.646 6.82133 133.646 8.4ZM141.911 8.4C141.911 7.49333 141.991 6.68267 142.151 5.968C142.311 5.24267 142.551 4.63467 142.871 4.144C143.191 3.64267 143.597 3.264 144.087 3.008C144.578 2.74133 145.159 2.608 145.831 2.608C146.546 2.608 147.149 2.736 147.639 2.992C148.141 3.248 148.546 3.62133 148.855 4.112C149.165 4.60267 149.389 5.21067 149.527 5.936C149.666 6.65067 149.735 7.472 149.735 8.4C149.735 9.30667 149.655 10.1227 149.495 10.848C149.335 11.5627 149.095 12.1707 148.775 12.672C148.455 13.1627 148.05 13.5413 147.559 13.808C147.069 14.064 146.487 14.192 145.815 14.192C145.111 14.192 144.509 14.0533 144.007 13.776C143.517 13.488 143.111 13.088 142.791 12.576C142.482 12.064 142.258 11.456 142.119 10.752C141.981 10.0373 141.911 9.25333 141.911 8.4ZM148.423 8.4C148.423 7.83467 148.391 7.296 148.327 6.784L143.575 11.12C143.757 11.728 144.029 12.2133 144.391 12.576C144.754 12.9387 145.229 13.12 145.815 13.12C146.754 13.12 147.421 12.7307 147.815 11.952C148.221 11.1733 148.423 9.98933 148.423 8.4ZM143.239 8.4C143.239 8.66667 143.245 8.92267 143.255 9.168C143.277 9.41333 143.298 9.65333 143.319 9.888L148.087 5.568C147.906 4.992 147.634 4.53333 147.271 4.192C146.919 3.85067 146.439 3.68 145.831 3.68C144.882 3.68 144.21 4.07467 143.815 4.864C143.431 5.64267 143.239 6.82133 143.239 8.4ZM164.315 13.072C164.72 13.072 165.093 13.024 165.435 12.928C165.776 12.8213 166.064 12.6667 166.299 12.464C166.544 12.2507 166.731 11.9893 166.859 11.68C166.997 11.3707 167.067 11.008 167.067 10.592C167.067 9.824 166.789 9.24267 166.235 8.848C165.691 8.44267 164.944 8.24 163.995 8.24L162.491 8.32V2.8H167.979V3.952H163.691V7.2L164.491 7.168C165.675 7.168 166.608 7.456 167.291 8.032C167.973 8.608 168.315 9.42933 168.315 10.496C168.315 11.0933 168.208 11.6213 167.995 12.08C167.792 12.5387 167.509 12.928 167.147 13.248C166.784 13.5573 166.352 13.792 165.851 13.952C165.36 14.112 164.821 14.192 164.235 14.192C163.915 14.192 163.611 14.1653 163.323 14.112C163.035 14.0693 162.773 14.016 162.539 13.952C162.304 13.8773 162.096 13.8027 161.915 13.728C161.744 13.6427 161.621 13.568 161.547 13.504L162.059 12.464C162.24 12.5707 162.517 12.6987 162.891 12.848C163.264 12.9973 163.739 13.072 164.315 13.072ZM177.812 5.632C177.812 6.61333 177.349 7.70667 176.421 8.912C175.493 10.1173 174.197 11.4293 172.533 12.848H178.165V14H171.061V12.848C171.263 12.656 171.541 12.4053 171.893 12.096C172.245 11.7867 172.623 11.4453 173.029 11.072C173.434 10.688 173.845 10.2773 174.261 9.84C174.687 9.40267 175.071 8.95467 175.413 8.496C175.754 8.03733 176.031 7.57867 176.245 7.12C176.458 6.66133 176.565 6.21867 176.565 5.792C176.565 5.152 176.394 4.65067 176.053 4.288C175.722 3.91467 175.221 3.728 174.549 3.728C173.973 3.728 173.487 3.792 173.093 3.92C172.698 4.048 172.341 4.23467 172.021 4.48L171.477 3.6C171.957 3.25867 172.463 3.008 172.997 2.848C173.541 2.688 174.133 2.608 174.773 2.608C175.775 2.608 176.533 2.88 177.045 3.424C177.557 3.968 177.812 4.704 177.812 5.632ZM193.096 13.072C193.501 13.072 193.875 13.024 194.216 12.928C194.557 12.8213 194.845 12.6667 195.08 12.464C195.325 12.2507 195.512 11.9893 195.64 11.68C195.779 11.3707 195.848 11.008 195.848 10.592C195.848 9.824 195.571 9.24267 195.016 8.848C194.472 8.44267 193.725 8.24 192.776 8.24L191.272 8.32V2.8H196.76V3.952H192.472V7.2L193.272 7.168C194.456 7.168 195.389 7.456 196.072 8.032C196.755 8.608 197.096 9.42933 197.096 10.496C197.096 11.0933 196.989 11.6213 196.776 12.08C196.573 12.5387 196.291 12.928 195.928 13.248C195.565 13.5573 195.133 13.792 194.632 13.952C194.141 14.112 193.603 14.192 193.016 14.192C192.696 14.192 192.392 14.1653 192.104 14.112C191.816 14.0693 191.555 14.016 191.32 13.952C191.085 13.8773 190.877 13.8027 190.696 13.728C190.525 13.6427 190.403 13.568 190.328 13.504L190.84 12.464C191.021 12.5707 191.299 12.6987 191.672 12.848C192.045 12.9973 192.52 13.072 193.096 13.072ZM206.594 5.632C206.594 6.61333 206.13 7.70667 205.202 8.912C204.274 10.1173 202.978 11.4293 201.314 12.848H206.946V14H199.842V12.848C200.044 12.656 200.322 12.4053 200.674 12.096C201.026 11.7867 201.404 11.4453 201.81 11.072C202.215 10.688 202.626 10.2773 203.042 9.84C203.468 9.40267 203.852 8.95467 204.194 8.496C204.535 8.03733 204.812 7.57867 205.026 7.12C205.239 6.66133 205.346 6.21867 205.346 5.792C205.346 5.152 205.175 4.65067 204.834 4.288C204.503 3.91467 204.002 3.728 203.33 3.728C202.754 3.728 202.268 3.792 201.874 3.92C201.479 4.048 201.122 4.23467 200.802 4.48L200.258 3.6C200.738 3.25867 201.244 3.008 201.778 2.848C202.322 2.688 202.914 2.608 203.554 2.608C204.556 2.608 205.314 2.88 205.826 3.424C206.338 3.968 206.594 4.704 206.594 5.632Z" fill="#F2F5F7"/>
</svg>
